<?xml version="1.0" encoding="utf-8"?>
<!-- Generator: Adobe Illustrator 12.0.1, SVG Export Plug-In . SVG Version: 6.00 Build 51448)  -->
<!DOCTYPE svg PUBLIC "-//W3C//DTD SVG 1.1//EN" "http://www.w3.org/Graphics/SVG/1.1/DTD/svg11.dtd" [
	<!ENTITY ns_svg "http://www.w3.org/2000/svg">
	<!ENTITY ns_xlink "http://www.w3.org/1999/xlink">
]>
<svg  version="1.1" id="Layer_1" xmlns="&ns_svg;" xmlns:xlink="&ns_xlink;" width="135.4" height="131.601"
	 viewBox="0 0 135.4 131.601" overflow="visible" enable-background="new 0 0 135.4 131.601" xml:space="preserve">
<g>
	<path d="M90.4,6.4c-12.8,0.8-14.2,2-14.2,9.4c24.6,0.8,59.2,12.2,59.2,48.4c0,36.8-35.4,49.8-59.2,50.2c0,9,1.6,10,14.2,10.8v6.4
		H45v-6.4c12.6-0.8,14.2-1.8,14.2-10.8C36,114,0,102,0,65.6c0-36,34.8-48.8,59.2-49.8c0-7.4-1.6-8.6-13-9.4V0h44.2V6.4z M59.2,23.2
		C42.2,24,19,33.8,19,64c0,31,22.8,41.8,40.2,43V23.2z M76.2,107c17-1.2,40.4-11,40.4-42c0-31.2-23.4-41-40.4-41.8V107z"/>
</g>
</svg>
